<svg id="Layer_1" data-name="Layer 1" xmlns="http://www.w3.org/2000/svg" viewBox="0 0 884.36 900.65"><path d="M482.7,187.38c-15,14.79-33.94,17.17-47.65,6.66s-18.19-32.76-9.6-47.7c8.38-14.58,26.58-20.14,44.42-13-1.9-9-3.43-17.62-5.59-26.06-1.15-4.49-.17-6.58,4.49-7s9.76-4,13.27-1.82c3.21,2,2.52,8.06,3.45,12.35,5.42,25.12,10.71,50.28,16.28,75.37.74,3.38-.16,4.46-3.24,4.9a44,44,0,0,0-8.32,1.75C485.59,194.51,482.56,194,482.7,187.38Zm-41.41-24.56c0,12,7.28,20.48,17.64,20.48s17.65-7.12,17.77-17.13c.15-11.88-7.19-20.65-17.4-20.8C448.85,145.21,441.32,152.51,441.29,162.82Z" transform="translate(-98.03 -90)"/><path d="M477.55,895.68c20.54,1.92,40.16,3.78,59.79,5.56,2.58.23,3.81,1,3.53,3.91q-4,41.31-7.76,82.66c-.31,3.4-2.42,2.89-4.51,2.69q-24.14-2.29-48.26-4.65c-1.41-.13-2.82-.3-4.23-.47-3.47-.41-8.74.85-9.93-1.9-1.71-4-.09-9,.65-13.55.46-2.85,2.72-1.76,4.23-1.63,12.74,1.11,25.49,2.14,38.18,3.66,4,.48,5-.61,5-4.26a40.48,40.48,0,0,1,.92-9c1.19-5.26-1.38-6.18-5.9-6.49-10.27-.68-20.5-2.08-30.77-2.77-3.8-.25-4.13-1.85-3.9-5,.83-11.27.75-11.32,11.62-10.41,9.2.77,18.4,1.56,27.58,2.52,2.47.26,3.54-.22,3.69-2.89a119.76,119.76,0,0,1,1.34-13.23c.54-3.21-.19-4.29-3.6-4.57-13.45-1.1-26.86-2.7-40.31-3.78-3.63-.3-4.6-1.5-3.82-4.87a27.47,27.47,0,0,0,.39-5.3C471.6,897.38,472.27,893.45,477.55,895.68Z" transform="translate(-98.03 -90)"/><path d="M184.35,569c-4.47-2.38-8.21-4.35-11.93-6.35-23.43-12.54-46.83-25.15-70.34-37.56-3.13-1.66-4.6-3.47-3.87-7a17.16,17.16,0,0,0,.53-5.8c-1.33-8.49,3.52-11.26,10.66-13.72,25.79-8.87,51.37-18.35,77-27.74,4-1.45,4.72-1.46,5.15,3.57,1.14,13.17-4.3,20-17.12,21.51-2.89.34-4.1,2-4.29,5-.73,11.49-1.63,23-2.63,34.46-.22,2.56.72,3.81,2.95,4.83,4.19,1.91,8.19,4.21,12.39,6.11,2.3,1,3.09,2.45,2.84,4.94C185.12,556.88,184.81,562.54,184.35,569Zm-65.26-54.79L150,529.71c1.46.74,2.31.55,2.43-1.29.54-8.4,1.12-16.8,1.73-25.82Z" transform="translate(-98.03 -90)"/><path d="M982.38,472.43a58.42,58.42,0,0,1-1.74,14.78c-.64,2.5-1.78,3.5-4.52,2.83-4-1-9-.41-11.73-2.69-2.94-2.41.62-7,.88-10.64a52.86,52.86,0,0,0-1.56-19,17.18,17.18,0,0,0-4.65-8.24c-5-4.5-11.41-2.75-13.37,3.64-1.42,4.65-1.18,9.49-1.54,14.25-.46,6.19-.3,12.43-1.51,18.55-1.65,8.45-5.33,15.57-14,18.58-9.2,3.2-17.86,2.05-25.47-4.41A31.37,31.37,0,0,1,895,489.68c-7.48-15.68-8.77-31.95-4.36-48.72.9-3.42,2.36-5.23,6.39-3.73,3.61,1.36,8.77.9,10.87,3.31,2,2.24-1.47,6.7-2,10.33-1.37,8.92-1.23,17.69,1.8,26.25,2.23,6.28,6.06,9.28,10.6,8.69,4.23-.55,6.71-4.17,7.28-11,.73-8.84,1-17.72,2.08-26.52,1.19-9.83,5.76-17.5,16-20.38,10.56-3,19.77-.51,27,7.81C979.75,446.25,982,459.07,982.38,472.43Z" transform="translate(-98.03 -90)"/><path d="M344.6,232.86c0,20-19.29,38.51-40.06,38.56-18.73,0-34.8-16.23-34.8-35.23,0-20.06,19.16-38.41,40.11-38.43C328.84,197.74,344.62,213.68,344.6,232.86Zm-55.83.36c.1,10.31,9.72,20.24,19.55,20.17,9.26-.06,17.38-8.13,17.4-17.31,0-10.49-9.83-20.6-19.87-20.39A17.64,17.64,0,0,0,288.77,233.22Z" transform="translate(-98.03 -90)"/><path d="M815.8,815.41c-11.24-8.22-27.44,2-30.37,14.47-1.23,5.23-3.4,5.44-7.55,5-10.2-1-10.94-2-7.44-11.85,6.42-18,28.35-31.52,45.43-28,15.44,3.17,27.64,17,28.6,32.37,1,16-10,32-26,37.65a34.38,34.38,0,0,1-38.56-11.84c-2-2.62-.6-3.61,1-5.11q15.45-14.28,30.84-28.62C813.07,818.29,814.26,817,815.8,815.41Zm11.68,17.21a20.77,20.77,0,0,0-.39-2.93c-1.41-5.88-2.41-6.2-6.74-2.2-6,5.51-11.81,11.18-17.94,16.52-2.94,2.56-2.18,3.64.85,5.06C813.89,854,827.36,845.34,827.48,832.62Z" transform="translate(-98.03 -90)"/><path d="M674.45,213.23c-22.17-.1-40.15-16.42-40.1-36.39,0-20.15,15.34-35.43,35.38-35.37,22,.06,40.34,16.63,40.26,36.37A35.07,35.07,0,0,1,674.45,213.23ZM690,176c.17-9.89-7.27-17.45-17.34-17.62-10.29-.17-18.46,8.84-18.62,20.52-.13,9.47,7.87,17.35,17.75,17.47S689.8,187.42,690,176Z" transform="translate(-98.03 -90)"/><path d="M392.08,939.64c-28.05.11-45.9-25.92-34.67-50.43,1.52-3.31,2.84-4.4,6.68-2.66,12.92,5.83,26.05,11.19,39.13,16.66,1.23.52,2.56,1.89,3.92.91s.87-2.9.64-4.44c-1.55-10.52-13.64-18.72-26-16.61-5,.86-6.26-.77-7.61-4.8-3.45-10.35-3.51-10.46,7.38-11.66,24.35-2.67,47.36,18.65,45,41.72A34.86,34.86,0,0,1,392.08,939.64ZM389.3,924.1a16.29,16.29,0,0,0,11.47-4.84c2-2,2.91-3.35-.71-4.77-8.26-3.24-16.42-6.73-24.52-10.34-3-1.33-3.67-.38-3.87,2.43C371,915.71,379.31,924,389.3,924.1Z" transform="translate(-98.03 -90)"/><path d="M927,556.18c0-7.09,0-14.19,0-21.28,0-4.87-.72-5.21-5-2.68-8.77,5.16-11.52,19.74-5.87,30,1,1.8,4.44,3.28,2.41,5.69a73.64,73.64,0,0,1-9.79,8.94c-1,.77-1.81-.69-2.54-1.38-12.61-11.82-11.74-41.32,1.61-55.25,12.89-13.45,35.82-13.65,49.47-.44,10.76,10.41,14,27.82,7.82,42.36-5.51,13-18.27,20.73-33.2,20.45-3.86-.07-5.31-1.15-5.12-5.2.32-7.07.09-14.17.09-21.26Zm11.64-9.78h-.08c0,4.61.11,9.23,0,13.83-.1,3.15,1.06,3.59,3.83,2.59a17.29,17.29,0,0,0,.54-31.74c-3.48-1.43-4.42-.33-4.29,3.09C938.75,538.24,938.63,542.33,938.63,546.4Z" transform="translate(-98.03 -90)"/><path d="M134.25,432.26c-.05-20.06,13.16-35.75,31.77-37.71a20.05,20.05,0,0,1,3.19-.15c5,.27,10.81.11,14.27,3.33,4.35,4-.78,8.92-1.89,13.25-2.83,11-6.52,21.72-9.82,32.58-1.46,4.79-1,5.17,4,4,9.85-2.37,16.78-15.17,14.58-26.42-.43-2.23-3.23-5-.73-6.73a45.3,45.3,0,0,1,12-5.65c1.69-.55,2.36,2.28,2.88,3.79,5.34,15.58,1.13,29.5-8.48,41.88-9.47,12.21-23.79,15.8-38.27,10.64S134.28,447.47,134.25,432.26Zm15.32-2.16a16.2,16.2,0,0,0,6.31,12.65c2.15,1.69,3.46,2,4.39-1.3,2.42-8.51,5.08-16.94,7.81-25.35,1.07-3.3-.08-4.09-3.19-3.84C156.52,412.93,149.73,420.66,149.57,430.1Z" transform="translate(-98.03 -90)"/><path d="M748.42,182.45c10.53-1.42,18.57.71,25.86,5.8,12,8.35,15.77,20.95,9.37,34-6.32,12.9-14.89,24.54-22.2,36.9-1.34,2.27-2.64,1.62-4.3.55-3.73-2.39-7.42-4.88-11.32-7-2.72-1.46-2.22-2.79-.89-4.91,6.21-9.91,12.52-19.78,18.35-29.92,4.24-7.37,2.92-13.5-3-17.95-7-5.32-14.87-5.21-20.79.56a36.51,36.51,0,0,0-5.17,6.72c-5,7.93-10,15.89-14.82,24-1.72,2.89-3.19,3.67-6.12,1.5a78,78,0,0,0-9.95-6.14c-3-1.58-2.89-3-1.19-5.73q16.17-25.65,31.94-51.55c1.7-2.8,3-3.35,5.64-1.3a38.05,38.05,0,0,0,6.77,4.2C750.93,174.29,753.9,176.64,748.42,182.45Z" transform="translate(-98.03 -90)"/><path d="M353,174.44c6.64-13.38,16-20,28.8-21.25,11.13-1.08,19.55,4,24.55,13.55,6.58,12.55,12.2,25.59,18.33,38.38.94,2,.42,2.81-1.41,3.61-4.23,1.84-8.47,3.68-12.55,5.82-2.69,1.42-3.6.35-4.66-2-4.76-10.49-9.43-21-14.65-31.31-5.49-10.79-17.08-11.84-24.76-2.53-4.65,5.64-4,11.88-1.3,18q6.27,14.09,12.92,28c1.26,2.64,1.73,4.31-1.75,5.58-4.81,1.74-10,6.37-14,5.44-4.25-1-5-8.29-7.16-12.86-6.93-14.56-13.48-29.31-20.45-43.86-1.74-3.63-1.2-5.41,2.58-6.62a33.59,33.59,0,0,0,6.28-2.88C348.21,167,352.2,165.43,353,174.44Z" transform="translate(-98.03 -90)"/><path d="M803.55,291.18c-15.08-.36-27-9.42-30.71-21.9-2.34-8-.21-14.73,5.79-20.25,5.8-5.32,12.5-6.24,19.78-3.39,8.53,3.34,14.44,10.09,21,16.05,1.69,1.54,3.12,5.12,5.57,3.86,2.8-1.46,3.74-5,3.55-8.4-.29-5.41-3.6-9.1-7.41-12.41a30.2,30.2,0,0,0-14-7.25c-3-.57-3.48-1.77-2.32-4.32a26.06,26.06,0,0,0,1.08-3.55c2.59-8.69,2.61-8.74,10.95-5.35A56.57,56.57,0,0,1,842,244c8.11,11.34,8.08,23.16-1,33.66-8.92,10.32-18.7,19.89-28,29.87-1.65,1.77-2.79,1.57-4.3,0a71.43,71.43,0,0,0-5.73-5.55C799.17,298.83,795.37,295.82,803.55,291.18Zm1.64-9.75c4.17.37,7.12-1.63,9.62-4.68.92-1.13,1.33-2.05.11-3.14-4.49-4-8.25-8.83-13.6-11.81-3.07-1.7-6.16-1.69-8.83.82a7.18,7.18,0,0,0-1.52,9.2C794,277.55,798.65,280.93,805.19,281.43Z" transform="translate(-98.03 -90)"/><path d="M660.1,975.83c-2.74-4.12-3.66-9.12-5.52-13.67-1.16-2.82,1.47-2.62,2.81-3.35a21.21,21.21,0,0,1,3-1.11c5.33-2,10.59-4.09,16-5.76,3.54-1.09,4.13-2.57,2.82-6.05-7.38-19.54-14.36-39.24-21.85-58.74-1.63-4.25-.92-5.92,3.3-7a50,50,0,0,0,9.47-3.48c3.77-1.82,5.43-.94,6.86,3.08,6.94,19.52,14.39,38.86,21.23,58.4,1.56,4.46,3.33,4.73,7.16,3.14,6.2-2.59,12.62-4.67,18.9-7.09,4.14-1.6,4.29,2.11,4.39,3.91.23,4,7.4,9.18,1.45,11.61-22.28,9.12-45.11,16.91-67.73,25.21C661.87,975.12,661.38,975.33,660.1,975.83Z" transform="translate(-98.03 -90)"/><path d="M357.77,866.76c.23,22.72-21.51,39.92-43.68,33.9-14.63-4-25.86-12.38-29.8-28.08a18.36,18.36,0,0,1-.51-3.14c-.52-6.53.1-7.14,6.49-6.39a10.52,10.52,0,0,0,1.58.21c6-.14,9.58,1.1,11,8.63,2.28,11.72,17.5,15.94,27,8.64,11.91-9.14,11.58-25-.65-32a15.87,15.87,0,0,0-13.85-1.21c-2.47.91-3.56.23-4.53-1.92-1.09-2.42-2.42-4.73-3.64-7.09-3.13-6.09-2.93-6.54,3.81-8.46C332.09,823.82,357.53,843.93,357.77,866.76Z" transform="translate(-98.03 -90)"/><path d="M819.87,777.55c.16-17.39,15.27-34.57,33.26-37.8,15-2.71,31.76,7,37.6,21.81,8.44,21.4-8,49.44-30.25,51.64-7.26.71-8.17-.2-7.15-7.17a9.82,9.82,0,0,0,.29-1.57c-.19-6,1.61-9.11,8.65-10,9.28-1.21,14.84-12.26,12.24-21.41-2.31-8.15-11.64-14.94-20.12-14.66-8,.27-15.09,6.44-16.72,14.64-.34,1.7-.73,3.8,0,5.22,2.45,5.09.06,7.38-4.42,8.76-3.44,1.06-7.18,5.47-9.84,3.46C819.81,787.74,819.75,782.25,819.87,777.55Z" transform="translate(-98.03 -90)"/><path d="M289.38,283.18c.1,18.66-17.72,37-36.77,38.27-17.84,1.21-34.39-12.95-36.71-31.42-2.72-21.65,19.32-45,39.65-42.21,3.33.46,5,1.34,3.61,5a22.86,22.86,0,0,0-1.09,4.64c-.75,5.13-1.76,8.46-8.81,8.5-9.51,0-16.41,10.24-15,19.57,1.51,10.38,12.53,18.59,22.78,17a17.67,17.67,0,0,0,14.26-20.31c-.58-3.06.33-4.17,2.92-4.94,2-.61,4-1.45,6-2.18,7.64-2.78,8.28-2.36,9.05,6C289.3,281.89,289.35,282.78,289.38,283.18Z" transform="translate(-98.03 -90)"/><path d="M147.07,692c-.07-3.94,1.77-9.54,5.35-14.64,1.29-1.82,2.43-2.35,4.21-.65a24.46,24.46,0,0,0,3.77,2.94c5,3.2,8.28,6.21,4.65,13.24-3,5.76.1,11.8,4.34,16.53,5,5.6,12.64,6.77,20.57,3.48,8.16-3.4,12.84-10,12.43-17.41-.44-7.87-5.17-14.29-12.8-16.46-3-.86-4.07-1.85-3.41-5a47.33,47.33,0,0,0,.71-9c.05-3.94,1.83-4.51,5.41-3.81,12.54,2.43,23.49,14.87,26.32,30.33,3.36,18.31-4.88,33.68-21.61,40.3-16,6.35-33,.44-42.83-15A43.76,43.76,0,0,1,147.07,692Z" transform="translate(-98.03 -90)"/><path d="M899,670.9l30,27.34c7.36,6.7,7.36,6.71,4.06,16.13-3,8.64-3,8.66-9.88,2.44-15.1-13.72-30.14-27.51-45.33-41.14-2.34-2.1-2.39-3.84-1.83-6.85,2.21-11.84,7.83-17,20.92-16.7,18.39.46,36.85-1.74,55.27-2.93,3.22-.21,3.52.68,2.65,3.58-4.68,15.59-4.62,15.56-20.75,16.28C922.88,669.56,911.64,670.23,899,670.9Z" transform="translate(-98.03 -90)"/><path d="M826.71,325.32c.17-7.49,3.75-13.21,9.51-17.64,6.75-5.19,13.53-10.36,20.52-15.23,3.06-2.13,3.69-3.9.9-6.52-3.49-3.28-3.41-6.08,1.12-8.3a10.82,10.82,0,0,0,1.71-1.27c5.65-4.2,5.78-4.3,10.15,1.42,1.74,2.27,2.84,2.14,5.06.65,3.58-2.41,6.78-7.76,10.74-6.55,3.32,1,5,6.55,8,9.54,4.11,4.14,2.53,6.34-1.57,9.16-8.37,5.74-8.23,5.94-2.16,14.12,4.13,5.58,4.13,5.58-1.46,9.72a20.81,20.81,0,0,0-3,2.24c-2.65,2.81-4.44,2.19-6.54-.84-2.29-3.31-4.06-8.52-7.63-9s-6.62,4.09-9.94,6.39c-3.94,2.73-7.77,5.62-11.57,8.54-6.53,5-6.82,11.13-.05,15.59,3.73,2.45,3.13,4.16,1,6.79a10.44,10.44,0,0,0-.58.89c-5.4,8.49-6.16,8.64-13.42,1.63C831.52,340.8,827.28,334,826.71,325.32Z" transform="translate(-98.03 -90)"/><path d="M300.67,813.22c-.26,7.16-3.33,12.44-7.68,17.09-5.46,5.83-10.88,11.7-16.57,17.3-2.59,2.55-3.13,4.52.13,6.61,4.65,3,4,5.85,0,8.78a9.29,9.29,0,0,0-1.12,1.14c-4.93,5.15-5,5.25-10.17.49-2-1.84-3.39-2.29-5.05.08a2.72,2.72,0,0,1-.37.39c-3.18,2.69-6.12,9.17-8.89,8-5.06-2.11-8.79-7.42-13.06-11.41-1.36-1.26-.36-2.15.53-3.07,2.34-2.43,4.51-5,7-7.25s2.2-3.86-.27-5.86-4.57-4.47-7-6.49c-2.22-1.82-1.82-3,0-5,8-8.76,8.14-9,16.27-.7,3.38,3.45,5.34,3.54,8.46-.17,4.45-5.28,9.53-10,14.24-15.11,6-6.43,5-12.47-2.89-16-3.18-1.39-3.66-2.61-2-5.29a13.41,13.41,0,0,0,.85-1.94c3.85-9.23,4.62-9.53,12.92-3.86C294,796.5,300,803.47,300.67,813.22Z" transform="translate(-98.03 -90)"/><path d="M552.19,162.42c.43-6.91.74-13.83,1.36-20.72.29-3.25-.79-4.78-4-4.34-5.48.74-6.9-1.86-5.8-6.73a8.39,8.39,0,0,0,.08-1.59c.31-7.06.32-7.22,7.15-6.78,3,.19,4.3-.74,4.2-3.69a4.77,4.77,0,0,1,.11-1.06c.72-3.77-1.19-10.18,1.5-10.91,5.37-1.44,11.52,0,17.34.31,1.32.07,1.72,1,1.66,2.24-.08,1.59-.13,3.19-.26,4.78-.85,10-.86,10,8.9,10.46,7.75.4,7.75.4,7,8-.15,1.59-.43,3.18-.44,4.77,0,2.32-1,3.25-3.31,2.74a2.32,2.32,0,0,0-.53-.05c-4.36,0-10.14-2.52-12.68.38-2.37,2.71-1.35,8.42-1.72,12.81s-.59,8.49-.86,12.74c-.51,8.28,4.34,12.61,12.28,10.23,3.67-1.1,4.71.05,5.32,3.09a4.84,4.84,0,0,0,.14.51c3.33,10.73,2.76,11.84-8.76,12.51-9.3.55-18.21-1-24.54-8.85C551.37,177.11,551.64,169.76,552.19,162.42Z" transform="translate(-98.03 -90)"/><path d="M421.82,976.83c3.78-14.71,7.41-28.78,11-42.86,3.65-14.25,7.34-28.49,10.83-42.77.85-3.5,2.14-4.74,5.82-3.39a72.24,72.24,0,0,0,10.81,2.75c3.1.63,3.86,1.8,3,5.1-6.89,26.22-13.53,52.51-20.27,78.77-2.32,9.05-2.35,9-11.48,6.73-2.58-.66-5.13-1.41-7.73-2C422,978.8,421.34,978,421.82,976.83Z" transform="translate(-98.03 -90)"/><path d="M722.43,851.75c1.91-.13,2.13,1.35,2.67,2.32q20.08,36.28,40.13,72.57c1.19,2.13,1.19,3.27-1.21,4.45-5.07,2.5-10.37,7.89-14.86,7.23-4.26-.63-5.84-8.54-8.49-13.3-11-19.81-21.84-39.75-33-59.51-1.92-3.39-1.94-5.07,1.82-6.78C714,856.68,718.25,854,722.43,851.75Z" transform="translate(-98.03 -90)"/><path d="M171.51,356.59c-2.78-7.43-2-14.43.64-21.39,1.09-2.82,2.44-3.68,5-1.87a16,16,0,0,0,1.88,1c3.31,1.7,7.62,2.64,9.64,5.31,2.15,2.86-2.05,6-2.77,9.35-1.68,7.8,1.15,14.42,9.35,18.87,8.71,4.74,17.59,9.17,26.53,13.44,3.33,1.58,4.05,3.1,2.06,6.31-2.58,4.19-3.83,10.83-7.39,12.35-3.77,1.61-8.74-3.39-13.14-5.57-14.75-7.32-29.38-14.89-44.15-22.15-3.09-1.51-3.89-2.91-1.89-5.85a51.1,51.1,0,0,0,2.88-5.67C163.81,353.53,163.82,353.53,171.51,356.59Z" transform="translate(-98.03 -90)"/><path d="M952.72,618.22a29.57,29.57,0,0,1,5.52,20.18c-.23,3.12-1.32,4.65-4.64,3.56a20.82,20.82,0,0,0-2.6-.59c-3.32-.59-7.32-.22-9.79-2-2.92-2.09-.09-6.1-.29-9.29-.47-8-4.49-13.58-12.88-15.47-10-2.25-20.21-3.87-30.37-5.51-3.69-.6-5.33-1.79-4.13-5.79a40.2,40.2,0,0,0,1.71-9.41c.24-4.52,2-5.44,6.42-4.62q28.77,5.43,57.67,10.17c4.14.68,5.17,2,3.84,5.8a34.69,34.69,0,0,0-.95,5.23C960.71,618.5,960.7,618.49,952.72,618.22Z" transform="translate(-98.03 -90)"/><path d="M215.56,802.5c-7.82-.55-13.78-4.27-18.95-9.6-1.89-1.95-2.19-3.45.35-5a27.73,27.73,0,0,0,2.5-2c2.8-2.17,5.39-5.63,8.46-6.14s4.3,4.27,6.85,6.28c6.42,5.06,13.59,5.39,21-.09,8-5.88,15.74-12.09,23.38-18.41,2.84-2.35,4.61-3.05,6.92.59,2.65,4.16,8.34,8.05,8.18,11.86-.17,4-6.81,6.45-10.65,9.53-12.71,10.2-25.61,20.17-38.23,30.49-3.18,2.61-5,2.39-7-1a34,34,0,0,0-2.95-3.75C210.18,808.65,210.18,808.65,215.56,802.5Z" transform="translate(-98.03 -90)"/><path d="M512.61,155.84c-.56-9.89-1-19.8-1.72-29.68-.21-3,.64-4.11,3.69-4.12,4.42,0,8.85-.41,13.26-.74,2.3-.17,3.06.76,3.17,3q1.5,31,3.22,62c.17,3-1.1,3.66-3.61,3.73-4.07.11-8.15.19-12.2.59-3.25.32-4.31-.83-4.41-4.07C513.7,176.34,513.1,166.09,512.61,155.84Z" transform="translate(-98.03 -90)"/><path d="M922.86,734.35c-2.8,5.11-5.54,10.46-8.64,15.6-.76,1.26-2.26-.19-3.28-.72-18.22-9.5-36.39-19.1-54.66-28.52-2.81-1.44-2.94-2.73-1.41-5.25,2.66-4.36,4-11.16,7.73-12.81,3.95-1.73,9,3.57,13.51,5.88C890.62,716,905,723.6,919.42,731.22,920.69,731.89,922.56,732.07,922.86,734.35Z" transform="translate(-98.03 -90)"/><path d="M245,739.76c-.19,1.48-1.35,1.8-2.21,2.32-17.76,11-35.57,21.94-53.32,33-1.93,1.2-2.94,1-4.09-1-2.61-4.61-7.82-9.2-7.61-13.59.24-4.82,7.7-6.22,12-9,13.59-8.67,27.48-16.85,41.06-25.53,3.46-2.21,5.08-1.76,6.86,1.72s4,6.65,6.07,10C244.2,738.35,244.6,739.13,245,739.76Z" transform="translate(-98.03 -90)"/><path d="M615.18,197a15.58,15.58,0,0,1-2-.3c-4.75-1.35-11.54,0-13.94-3.57s.92-9.38,1.8-14.2c2.9-16,6-32,8.8-48,.64-3.65,1.87-5,5.54-3.84,4.72,1.42,11.61,0,13.92,3.56,2.48,3.76-.92,9.75-1.81,14.74-2.87,16-6,32-8.94,48C618.16,195.66,617.94,197.73,615.18,197Z" transform="translate(-98.03 -90)"/><path d="M194.06,611.62c.08,6.83-5.44,12.3-12.56,12.44-6.84.14-12.11-5.39-12.12-12.7,0-7,5-11.89,12.11-12A12.13,12.13,0,0,1,194.06,611.62Z" transform="translate(-98.03 -90)"/><path d="M875.31,402.64a12.49,12.49,0,0,1-12.25-12.74,12.67,12.67,0,0,1,13-12c6.43.14,11.86,5.84,12,12.56S882.37,402.7,875.31,402.64Z" transform="translate(-98.03 -90)"/><path d="M586.45,921.42c-7.19,0-12.16-5.22-12.05-12.61a11.93,11.93,0,0,1,12.25-12,12.3,12.3,0,0,1,12.47,12.45C599.23,916.16,593.73,921.43,586.45,921.42Z" transform="translate(-98.03 -90)"/><path d="M152.41,777.67a10.45,10.45,0,0,1,10.71-10.77c6.5,0,12.64,6.48,12.6,13.33a11.19,11.19,0,0,1-10.83,10.94C158.52,791.15,152.47,784.6,152.41,777.67Z" transform="translate(-98.03 -90)"/><path d="M936.48,763.9a11,11,0,0,1-10.89-10.76c-.19-6.92,5.78-13.65,12.16-13.73a11.12,11.12,0,0,1,10.91,10.84C948.83,757.22,942.89,763.87,936.48,763.9Z" transform="translate(-98.03 -90)"/><path d="M519.59,112c-7.27.06-12.2-4.43-12.13-11.06.07-6.42,5.12-10.87,12.42-10.93,7.08-.06,12.08,4.24,12.2,10.49C532.2,107.12,527,111.93,519.59,112Z" transform="translate(-98.03 -90)"/><path d="M624.43,96.67c7.46.29,12.65,5.24,12.3,11.73A11.24,11.24,0,0,1,625,119c-7.47-.16-13.2-5.47-12.89-12C612.4,100.66,617.5,96.4,624.43,96.67Z" transform="translate(-98.03 -90)"/></svg>